# xmcd
#
# Track frame offsets: 
#        183
#        19013
#        36525
#        52563
#        75608
#        99965
#        124948
#        138693
#        161403
#        186643
#        212843
#        226473
#        251840
#
# Disc length: 3522 seconds
#
# Revision: 1
# Processed by: cddbd v1.5.2PL0 Copyright (c) Steve Scherf et al.
# Submitted via: ExactAudioCopyFreeDBPlugin 1.0
#
DISCID=b30dc00d
DTITLE=Marva Wright - Born With The Blues
DYEAR=1993
DGENRE=Blues
TTITLE0=The Glitter Queen
TTITLE1=That's Wrong
TTITLE2=Three Times
TTITLE3=Before I Met You
TTITLE4=Born With The Blues
TTITLE5=It's Gonna Be Alright
TTITLE6=Been and Gone
TTITLE7=Pray
TTITLE8=Houng Dog
TTITLE9=It's So Nice
TTITLE10=He's On The Way
TTITLE11=Do Right Woman - Do Right Man
TTITLE12=Can't Nobody Love You
EXTD=ID3G: 0
EXTT0=
EXTT1=
EXTT2=
EXTT3=
EXTT4=
EXTT5=
EXTT6=
EXTT7=
EXTT8=
EXTT9=
EXTT10=
EXTT11=
EXTT12=
PLAYORDER=
